<svg xmlns="http://www.w3.org/2000/svg" viewBox="0 0 47.691 49.943"><defs><style>.cls-1{fill:#fcf4d4;}</style></defs><title>icon3</title><g id="Camada_2" data-name="Camada 2"><g id="Layer_1" data-name="Layer 1"><path class="cls-1" d="M47.691,14.037c0,4.363-2.546,11.854-12.092,12.248a11.731,11.731,0,0,1-8.908-2.968,13.5,13.5,0,0,1-3.784-8.736,7.824,7.824,0,0,1-.054-.953c0-5.215,3.16-11.558,12.063-12.273A11.176,11.176,0,0,1,43.74,4.033c3.843,3.551,3.951,9.265,3.951,9.9h0ZM27.927,14.3a8.456,8.456,0,0,0,2.244,5.331,6.96,6.96,0,0,0,5.238,1.615c6.906-.283,7.255-6.075,7.255-7.235v-.023c0-.108-.027-4.062-2.341-6.2a6.337,6.337,0,0,0-5.068-1.414c-6.652.532-7.369,5.262-7.369,7.269a3.291,3.291,0,0,0,.013.371l.039.174Z"/><path class="cls-1" d="M0,8.869A3.32,3.32,0,0,1,3.339,5.532a3.338,3.338,0,1,1-.032,6.676A3.313,3.313,0,0,1,0,8.869Z"/><rect class="cls-1" x="12.188" width="5.854" height="49.943"/><rect class="cls-1" x="13.944" y="11.123" width="12.096" height="5.852"/></g></g></svg>